<?xml version="1.0" encoding="utf-8" standalone="no"?>
<!DOCTYPE svg PUBLIC "-//W3C//DTD SVG 1.1//EN"
  "http://www.w3.org/Graphics/SVG/1.1/DTD/svg11.dtd">
<svg xmlns:xlink="http://www.w3.org/1999/xlink" width="248.4pt" height="111.6pt" viewBox="0 0 248.4 111.6" xmlns="http://www.w3.org/2000/svg" version="1.1">
 <metadata>
  <rdf:RDF xmlns:dc="http://purl.org/dc/elements/1.1/" xmlns:cc="http://creativecommons.org/ns#" xmlns:rdf="http://www.w3.org/1999/02/22-rdf-syntax-ns#">
   <cc:Work>
    <dc:type rdf:resource="http://purl.org/dc/dcmitype/StillImage"/>
    <dc:date>2026-09-27T02:56:20.946968</dc:date>
    <dc:format>image/svg+xml</dc:format>
    <dc:creator>
     <cc:Agent>
      <dc:title>Matplotlib v3.11.2, https://matplotlib.org/</dc:title>
     </cc:Agent>
    </dc:creator>
   </cc:Work>
  </rdf:RDF>
 </metadata>
 <defs>
  <style type="text/css">*{stroke-linejoin: round; stroke-linecap: butt}</style>
 </defs>
 <g id="figure_1">
  <g id="patch_1">
   <path d="M 0 111.6 
L 248.4 111.6 
L 248.4 0 
L 0 0 
z
" style="fill: #ffffff"/>
  </g>
  <g id="axes_1">
   <g id="patch_2">
    <path d="M 34.941641 66.528 
L 121.787614 66.528 
L 121.787614 13.86 
L 34.941641 13.86 
z
" style="fill: #ffffff"/>
   </g>
   <g id="FillBetweenPolyCollection_1">
    <defs>
     <path id="m18e2991a48" d="M 37.11279 -47.245723 
L 37.11279 -47.162627 
L 41.455089 -49.695534 
L 45.797387 -52.246522 
L 50.139686 -54.825894 
L 54.481985 -57.311603 
L 58.824283 -59.900607 
L 63.166582 -62.321998 
L 67.508881 -64.855925 
L 71.851179 -67.340185 
L 76.193478 -69.78224 
L 80.535776 -72.356968 
L 84.878075 -74.930907 
L 89.220374 -77.430203 
L 93.562672 -79.961979 
L 97.904971 -82.420949 
L 102.24727 -84.919942 
L 106.589568 -87.486658 
L 110.931867 -90.075383 
L 115.274166 -92.65407 
L 119.616464 -95.191068 
L 119.616464 -95.305942 
L 119.616464 -95.305942 
L 115.274166 -92.761722 
L 110.931867 -90.245375 
L 106.589568 -87.698433 
L 102.24727 -85.272941 
L 97.904971 -82.823467 
L 93.562672 -80.291672 
L 89.220374 -77.727553 
L 84.878075 -75.141244 
L 80.535776 -72.658027 
L 76.193478 -70.047367 
L 71.851179 -67.486053 
L 67.508881 -65.022235 
L 63.166582 -62.59951 
L 58.824283 -60.07186 
L 54.481985 -57.475378 
L 50.139686 -54.957794 
L 45.797387 -52.335799 
L 41.455089 -49.811695 
L 37.11279 -47.245723 
z
"/>
    </defs>
    <g clip-path="url(#p5f9601f9ca)">
     <use xlink:href="#m18e2991a48" x="0" y="111.6" style="fill: #1f77b4; fill-opacity: 0.2"/>
    </g>
   </g>
   <g id="FillBetweenPolyCollection_2">
    <defs>
     <path id="mdf2913a5f9" d="M 37.11279 -47.026776 
L 37.11279 -46.997812 
L 41.455089 -49.234464 
L 45.797387 -51.507693 
L 50.139686 -53.60818 
L 54.481985 -55.671434 
L 58.824283 -57.754514 
L 63.166582 -59.850575 
L 67.508881 -61.96076 
L 71.851179 -64.054409 
L 76.193478 -66.14362 
L 80.535776 -68.128733 
L 84.878075 -70.260775 
L 89.220374 -72.401784 
L 93.562672 -74.515429 
L 97.904971 -76.585097 
L 102.24727 -78.707127 
L 106.589568 -80.822391 
L 110.931867 -82.902316 
L 115.274166 -85.140951 
L 119.616464 -87.363493 
L 119.616464 -87.657279 
L 119.616464 -87.657279 
L 115.274166 -85.282882 
L 110.931867 -83.145944 
L 106.589568 -81.058536 
L 102.24727 -78.933273 
L 97.904971 -76.824414 
L 93.562672 -74.721318 
L 89.220374 -72.617528 
L 84.878075 -70.550237 
L 80.535776 -68.466566 
L 76.193478 -66.338773 
L 71.851179 -64.227846 
L 67.508881 -62.080788 
L 63.166582 -60.005664 
L 58.824283 -57.944594 
L 54.481985 -55.848411 
L 50.139686 -53.848876 
L 45.797387 -51.771009 
L 41.455089 -49.351177 
L 37.11279 -47.026776 
z
"/>
    </defs>
    <g clip-path="url(#p5f9601f9ca)">
     <use xlink:href="#mdf2913a5f9" x="0" y="111.6" style="fill: #2ca02c; fill-opacity: 0.2"/>
    </g>
   </g>
   <g id="FillBetweenPolyCollection_3">
    <defs>
     <path id="maa34e2a723" d="M 37.11279 -47.122247 
L 37.11279 -47.091788 
L 41.455089 -49.441309 
L 45.797387 -51.831896 
L 50.139686 -53.866917 
L 54.481985 -55.827266 
L 58.824283 -57.869549 
L 63.166582 -59.892495 
L 67.508881 -61.978148 
L 71.851179 -63.987636 
L 76.193478 -65.954862 
L 80.535776 -67.992089 
L 84.878075 -70.099304 
L 89.220374 -72.088756 
L 93.562672 -74.117148 
L 97.904971 -76.159333 
L 102.24727 -78.100872 
L 106.589568 -80.158173 
L 110.931867 -82.24886 
L 115.274166 -84.423937 
L 119.616464 -86.815334 
L 119.616464 -87.124066 
L 119.616464 -87.124066 
L 115.274166 -84.752777 
L 110.931867 -82.677922 
L 106.589568 -80.494773 
L 102.24727 -78.450707 
L 97.904971 -76.441892 
L 93.562672 -74.434177 
L 89.220374 -72.47287 
L 84.878075 -70.450377 
L 80.535776 -68.421358 
L 76.193478 -66.341529 
L 71.851179 -64.299213 
L 67.508881 -62.222006 
L 63.166582 -60.141137 
L 58.824283 -58.101714 
L 54.481985 -56.062714 
L 50.139686 -54.001236 
L 45.797387 -51.909679 
L 41.455089 -49.52456 
L 37.11279 -47.122247 
z
"/>
    </defs>
    <g clip-path="url(#p5f9601f9ca)">
     <use xlink:href="#maa34e2a723" x="0" y="111.6" style="fill: #d62728; fill-opacity: 0.2"/>
    </g>
   </g>
   <g id="FillBetweenPolyCollection_4">
    <defs>
     <path id="mc5316832df" d="M 37.11279 -46.624779 
L 37.11279 -46.624779 
L 41.455089 -48.631307 
L 45.797387 -50.556208 
L 50.139686 -52.51978 
L 54.481985 -54.507531 
L 58.824283 -56.568947 
L 63.166582 -58.604412 
L 67.508881 -60.581733 
L 71.851179 -62.586199 
L 76.193478 -64.632802 
L 80.535776 -66.575889 
L 84.878075 -68.656873 
L 89.220374 -70.701318 
L 93.562672 -72.781255 
L 97.904971 -74.836675 
L 102.24727 -76.888321 
L 106.589568 -78.978731 
L 110.931867 -81.033036 
L 115.274166 -83.057765 
L 119.616464 -85.086798 
L 119.616464 -85.086798 
L 119.616464 -85.086798 
L 115.274166 -83.057765 
L 110.931867 -81.033036 
L 106.589568 -78.978731 
L 102.24727 -76.888321 
L 97.904971 -74.836675 
L 93.562672 -72.781255 
L 89.220374 -70.701318 
L 84.878075 -68.656873 
L 80.535776 -66.575889 
L 76.193478 -64.632802 
L 71.851179 -62.586199 
L 67.508881 -60.581733 
L 63.166582 -58.604412 
L 58.824283 -56.568947 
L 54.481985 -54.507531 
L 50.139686 -52.51978 
L 45.797387 -50.556208 
L 41.455089 -48.631307 
L 37.11279 -46.624779 
z
"/>
    </defs>
    <g clip-path="url(#p5f9601f9ca)">
     <use xlink:href="#mc5316832df" x="0" y="111.6" style="fill: #444444; fill-opacity: 0.2"/>
    </g>
   </g>
   <g id="patch_3">
    <path d="M 34.941641 66.528 
L 39.283939 66.528 
L 39.283939 13.86 
L 34.941641 13.86 
z
" clip-path="url(#p5f9601f9ca)" style="opacity: 0.07"/>
   </g>
   <g id="patch_4">
    <path d="M 39.283939 66.528 
L 43.626238 66.528 
L 43.626238 13.86 
L 39.283939 13.86 
z
" clip-path="url(#p5f9601f9ca)" style="opacity: 0.07"/>
   </g>
   <g id="patch_5">
    <path d="M 43.626238 66.528 
L 47.968537 66.528 
L 47.968537 13.86 
L 43.626238 13.86 
z
" clip-path="url(#p5f9601f9ca)" style="opacity: 0.07"/>
   </g>
   <g id="patch_6">
    <path d="M 117.445315 66.528 
L 121.787614 66.528 
L 121.787614 13.86 
L 117.445315 13.86 
z
" clip-path="url(#p5f9601f9ca)" style="opacity: 0.07"/>
   </g>
   <g id="matplotlib.axis_1">
    <g id="xtick_1">
     <g id="line2d_1">
      <path d="M 37.11279 66.528 
L 37.11279 13.86 
" clip-path="url(#p5f9601f9ca)" style="fill: none; stroke: #b0b0b0; stroke-opacity: 0.25; stroke-width: 0.4; stroke-linecap: square"/>
     </g>
     <g id="line2d_2">
      <defs>
       <path id="m1fa0b80df0" d="M 0 0 
L 0 3.5 
" style="stroke: #000000; stroke-width: 0.8"/>
      </defs>
      <g>
       <use xlink:href="#m1fa0b80df0" x="37.11279" y="66.528" style="stroke: #000000; stroke-width: 0.8"/>
      </g>
     </g>
     <g id="text_1">
      <!-- 1 -->
      <g transform="translate(35.20404 78.086594) scale(0.06 -0.06)">
       <defs>
        <path id="DejaVuSerif-14" d="M 909 0 
L 909 331 
L 1722 331 
L 1722 4213 
L 781 3603 
L 781 4013 
L 1919 4750 
L 2350 4750 
L 2350 331 
L 3163 331 
L 3163 0 
L 909 0 
z
" transform="scale(0.015625)"/>
       </defs>
       <use xlink:href="#DejaVuSerif-14"/>
      </g>
     </g>
    </g>
    <g id="xtick_2">
     <g id="line2d_3">
      <path d="M 54.481985 66.528 
L 54.481985 13.86 
" clip-path="url(#p5f9601f9ca)" style="fill: none; stroke: #b0b0b0; stroke-opacity: 0.25; stroke-width: 0.4; stroke-linecap: square"/>
     </g>
     <g id="line2d_4">
      <g>
       <use xlink:href="#m1fa0b80df0" x="54.481985" y="66.528" style="stroke: #000000; stroke-width: 0.8"/>
      </g>
     </g>
     <g id="text_2">
      <!-- 5 -->
      <g transform="translate(52.573235 78.086594) scale(0.06 -0.06)">
       <defs>
        <path id="DejaVuSerif-18" d="M 3219 4666 
L 3219 4153 
L 1081 4153 
L 1081 2816 
Q 1244 2928 1461 2984 
Q 1678 3041 1947 3041 
Q 2703 3041 3140 2622 
Q 3578 2203 3578 1478 
Q 3578 738 3136 323 
Q 2694 -91 1894 -91 
Q 1572 -91 1234 -12 
Q 897 66 544 225 
L 544 1131 
L 897 1131 
Q 925 688 1179 453 
Q 1434 219 1894 219 
Q 2388 219 2653 544 
Q 2919 869 2919 1478 
Q 2919 2084 2655 2407 
Q 2391 2731 1894 2731 
Q 1613 2731 1398 2631 
Q 1184 2531 1019 2322 
L 750 2322 
L 750 4666 
L 3219 4666 
z
" transform="scale(0.015625)"/>
       </defs>
       <use xlink:href="#DejaVuSerif-18"/>
      </g>
     </g>
    </g>
    <g id="xtick_3">
     <g id="line2d_5">
      <path d="M 76.193478 66.528 
L 76.193478 13.86 
" clip-path="url(#p5f9601f9ca)" style="fill: none; stroke: #b0b0b0; stroke-opacity: 0.25; stroke-width: 0.4; stroke-linecap: square"/>
     </g>
     <g id="line2d_6">
      <g>
       <use xlink:href="#m1fa0b80df0" x="76.193478" y="66.528" style="stroke: #000000; stroke-width: 0.8"/>
      </g>
     </g>
     <g id="text_3">
      <!-- 10 -->
      <g transform="translate(72.375978 78.086594) scale(0.06 -0.06)">
       <defs>
        <path id="DejaVuSerif-13" d="M 2034 219 
Q 2513 219 2750 744 
Q 2988 1269 2988 2328 
Q 2988 3391 2750 3916 
Q 2513 4441 2034 4441 
Q 1556 4441 1318 3916 
Q 1081 3391 1081 2328 
Q 1081 1269 1318 744 
Q 1556 219 2034 219 
z
M 2034 -91 
Q 1275 -91 848 546 
Q 422 1184 422 2328 
Q 422 3475 848 4112 
Q 1275 4750 2034 4750 
Q 2797 4750 3222 4112 
Q 3647 3475 3647 2328 
Q 3647 1184 3222 546 
Q 2797 -91 2034 -91 
z
" transform="scale(0.015625)"/>
       </defs>
       <use xlink:href="#DejaVuSerif-14"/>
       <use xlink:href="#DejaVuSerif-13" transform="translate(63.625 0)"/>
      </g>
     </g>
    </g>
    <g id="xtick_4">
     <g id="line2d_7">
      <path d="M 97.904971 66.528 
L 97.904971 13.86 
" clip-path="url(#p5f9601f9ca)" style="fill: none; stroke: #b0b0b0; stroke-opacity: 0.25; stroke-width: 0.4; stroke-linecap: square"/>
     </g>
     <g id="line2d_8">
      <g>
       <use xlink:href="#m1fa0b80df0" x="97.904971" y="66.528" style="stroke: #000000; stroke-width: 0.8"/>
      </g>
     </g>
     <g id="text_4">
      <!-- 15 -->
      <g transform="translate(94.087471 78.086594) scale(0.06 -0.06)">
       <use xlink:href="#DejaVuSerif-14"/>
       <use xlink:href="#DejaVuSerif-18" transform="translate(63.625 0)"/>
      </g>
     </g>
    </g>
    <g id="xtick_5">
     <g id="line2d_9">
      <path d="M 119.616464 66.528 
L 119.616464 13.86 
" clip-path="url(#p5f9601f9ca)" style="fill: none; stroke: #b0b0b0; stroke-opacity: 0.25; stroke-width: 0.4; stroke-linecap: square"/>
     </g>
     <g id="line2d_10">
      <g>
       <use xlink:href="#m1fa0b80df0" x="119.616464" y="66.528" style="stroke: #000000; stroke-width: 0.8"/>
      </g>
     </g>
     <g id="text_5">
      <!-- 20 -->
      <g transform="translate(115.798964 78.086594) scale(0.06 -0.06)">
       <defs>
        <path id="DejaVuSerif-15" d="M 819 3553 
L 469 3553 
L 469 4384 
Q 803 4563 1142 4656 
Q 1481 4750 1806 4750 
Q 2534 4750 2956 4397 
Q 3378 4044 3378 3438 
Q 3378 2753 2422 1800 
Q 2347 1728 2309 1691 
L 1131 513 
L 3078 513 
L 3078 1088 
L 3444 1088 
L 3444 0 
L 434 0 
L 434 341 
L 1850 1753 
Q 2319 2222 2519 2614 
Q 2719 3006 2719 3438 
Q 2719 3909 2473 4175 
Q 2228 4441 1797 4441 
Q 1350 4441 1106 4219 
Q 863 3997 819 3553 
z
" transform="scale(0.015625)"/>
       </defs>
       <use xlink:href="#DejaVuSerif-15"/>
       <use xlink:href="#DejaVuSerif-13" transform="translate(63.625 0)"/>
      </g>
     </g>
    </g>
    <g id="text_6">
     <!-- training step -->
     <g transform="translate(55.583455 88.846359) scale(0.07 -0.07)">
      <defs>
       <path id="DejaVuSerif-57" d="M 691 2988 
L 184 2988 
L 184 3322 
L 691 3322 
L 691 4353 
L 1269 4353 
L 1269 3322 
L 2350 3322 
L 2350 2988 
L 1269 2988 
L 1269 878 
Q 1269 456 1350 337 
Q 1431 219 1650 219 
Q 1875 219 1978 351 
Q 2081 484 2088 781 
L 2522 781 
Q 2497 328 2275 118 
Q 2053 -91 1600 -91 
Q 1103 -91 897 129 
Q 691 350 691 878 
L 691 2988 
z
" transform="scale(0.015625)"/>
       <path id="DejaVuSerif-55" d="M 3059 3328 
L 3059 2497 
L 2728 2497 
Q 2713 2744 2591 2866 
Q 2469 2988 2234 2988 
Q 1809 2988 1582 2694 
Q 1356 2400 1356 1850 
L 1356 331 
L 2022 331 
L 2022 0 
L 263 0 
L 263 331 
L 781 331 
L 781 2994 
L 231 2994 
L 231 3322 
L 1356 3322 
L 1356 2731 
Q 1525 3078 1790 3245 
Q 2056 3413 2438 3413 
Q 2578 3413 2733 3391 
Q 2888 3369 3059 3328 
z
" transform="scale(0.015625)"/>
       <path id="DejaVuSerif-44" d="M 2547 1044 
L 2547 1747 
L 1806 1747 
Q 1378 1747 1168 1562 
Q 959 1378 959 997 
Q 959 650 1171 447 
Q 1384 244 1747 244 
Q 2106 244 2326 466 
Q 2547 688 2547 1044 
z
M 3122 2075 
L 3122 331 
L 3634 331 
L 3634 0 
L 2547 0 
L 2547 359 
Q 2356 128 2106 18 
Q 1856 -91 1522 -91 
Q 969 -91 644 203 
Q 319 497 319 997 
Q 319 1513 691 1797 
Q 1063 2081 1741 2081 
L 2547 2081 
L 2547 2309 
Q 2547 2688 2317 2895 
Q 2088 3103 1672 3103 
Q 1328 3103 1125 2947 
Q 922 2791 872 2484 
L 575 2484 
L 575 3156 
Q 875 3284 1158 3348 
Q 1441 3413 1709 3413 
Q 2400 3413 2761 3070 
Q 3122 2728 3122 2075 
z
" transform="scale(0.015625)"/>
       <path id="DejaVuSerif-4c" d="M 622 4353 
Q 622 4497 726 4603 
Q 831 4709 978 4709 
Q 1122 4709 1226 4603 
Q 1331 4497 1331 4353 
Q 1331 4206 1228 4103 
Q 1125 4000 978 4000 
Q 831 4000 726 4103 
Q 622 4206 622 4353 
z
M 1356 331 
L 1900 331 
L 1900 0 
L 231 0 
L 231 331 
L 781 331 
L 781 2988 
L 231 2988 
L 231 3322 
L 1356 3322 
L 1356 331 
z
" transform="scale(0.015625)"/>
       <path id="DejaVuSerif-51" d="M 263 0 
L 263 331 
L 781 331 
L 781 2988 
L 231 2988 
L 231 3322 
L 1356 3322 
L 1356 2731 
Q 1516 3069 1770 3241 
Q 2025 3413 2363 3413 
Q 2913 3413 3172 3097 
Q 3431 2781 3431 2113 
L 3431 331 
L 3944 331 
L 3944 0 
L 2356 0 
L 2356 331 
L 2853 331 
L 2853 1931 
Q 2853 2541 2703 2767 
Q 2553 2994 2175 2994 
Q 1775 2994 1565 2701 
Q 1356 2409 1356 1850 
L 1356 331 
L 1856 331 
L 1856 0 
L 263 0 
z
" transform="scale(0.015625)"/>
       <path id="DejaVuSerif-4a" d="M 3359 2988 
L 3359 72 
Q 3359 -644 2965 -1033 
Q 2572 -1422 1844 -1422 
Q 1516 -1422 1216 -1362 
Q 916 -1303 641 -1184 
L 641 -488 
L 941 -488 
Q 997 -813 1206 -963 
Q 1416 -1113 1806 -1113 
Q 2313 -1113 2548 -827 
Q 2784 -541 2784 72 
L 2784 519 
Q 2616 206 2355 57 
Q 2094 -91 1709 -91 
Q 1097 -91 708 395 
Q 319 881 319 1663 
Q 319 2444 706 2928 
Q 1094 3413 1709 3413 
Q 2094 3413 2355 3264 
Q 2616 3116 2784 2803 
L 2784 3322 
L 3909 3322 
L 3909 2988 
L 3359 2988 
z
M 2784 1825 
Q 2784 2422 2554 2737 
Q 2325 3053 1888 3053 
Q 1444 3053 1217 2703 
Q 991 2353 991 1663 
Q 991 975 1217 622 
Q 1444 269 1888 269 
Q 2325 269 2554 583 
Q 2784 897 2784 1497 
L 2784 1825 
z
" transform="scale(0.015625)"/>
       <path id="DejaVuSerif-3" transform="scale(0.015625)"/>
       <path id="DejaVuSerif-56" d="M 359 184 
L 359 959 
L 691 959 
Q 703 588 923 403 
Q 1144 219 1575 219 
Q 1963 219 2166 364 
Q 2369 509 2369 788 
Q 2369 1006 2220 1140 
Q 2072 1275 1594 1428 
L 1178 1569 
Q 750 1706 558 1912 
Q 366 2119 366 2438 
Q 366 2894 700 3153 
Q 1034 3413 1625 3413 
Q 1888 3413 2178 3344 
Q 2469 3275 2778 3144 
L 2778 2419 
L 2447 2419 
Q 2434 2741 2221 2922 
Q 2009 3103 1644 3103 
Q 1281 3103 1095 2975 
Q 909 2847 909 2591 
Q 909 2381 1050 2254 
Q 1191 2128 1613 1997 
L 2069 1856 
Q 2541 1709 2748 1489 
Q 2956 1269 2956 922 
Q 2956 450 2595 179 
Q 2234 -91 1600 -91 
Q 1278 -91 972 -22 
Q 666 47 359 184 
z
" transform="scale(0.015625)"/>
       <path id="DejaVuSerif-48" d="M 3469 1600 
L 991 1600 
L 991 1575 
Q 991 903 1244 561 
Q 1497 219 1991 219 
Q 2369 219 2611 417 
Q 2853 616 2950 1006 
L 3413 1006 
Q 3275 459 2904 184 
Q 2534 -91 1931 -91 
Q 1203 -91 761 389 
Q 319 869 319 1663 
Q 319 2450 753 2931 
Q 1188 3413 1894 3413 
Q 2647 3413 3050 2948 
Q 3453 2484 3469 1600 
z
M 2791 1931 
Q 2772 2513 2545 2808 
Q 2319 3103 1894 3103 
Q 1497 3103 1269 2806 
Q 1041 2509 991 1931 
L 2791 1931 
z
" transform="scale(0.015625)"/>
       <path id="DejaVuSerif-53" d="M 1313 1825 
L 1313 1497 
Q 1313 897 1542 583 
Q 1772 269 2209 269 
Q 2650 269 2876 622 
Q 3103 975 3103 1663 
Q 3103 2353 2876 2703 
Q 2650 3053 2209 3053 
Q 1772 3053 1542 2737 
Q 1313 2422 1313 1825 
z
M 738 2988 
L 184 2988 
L 184 3322 
L 1313 3322 
L 1313 2803 
Q 1481 3116 1742 3264 
Q 2003 3413 2388 3413 
Q 3000 3413 3387 2928 
Q 3775 2444 3775 1663 
Q 3775 881 3387 395 
Q 3000 -91 2388 -91 
Q 2003 -91 1742 57 
Q 1481 206 1313 519 
L 1313 -997 
L 1856 -997 
L 1856 -1331 
L 184 -1331 
L 184 -997 
L 738 -997 
L 738 2988 
z
" transform="scale(0.015625)"/>
      </defs>
      <use xlink:href="#DejaVuSerif-57"/>
      <use xlink:href="#DejaVuSerif-55" transform="translate(40.1875 0)"/>
      <use xlink:href="#DejaVuSerif-44" transform="translate(87.984375 0)"/>
      <use xlink:href="#DejaVuSerif-4c" transform="translate(147.609375 0)"/>
      <use xlink:href="#DejaVuSerif-51" transform="translate(179.59375 0)"/>
      <use xlink:href="#DejaVuSerif-4c" transform="translate(244 0)"/>
      <use xlink:href="#DejaVuSerif-51" transform="translate(275.984375 0)"/>
      <use xlink:href="#DejaVuSerif-4a" transform="translate(340.390625 0)"/>
      <use xlink:href="#DejaVuSerif-3" transform="translate(404.40625 0)"/>
      <use xlink:href="#DejaVuSerif-56" transform="translate(436.1875 0)"/>
      <use xlink:href="#DejaVuSerif-57" transform="translate(487.5 0)"/>
      <use xlink:href="#DejaVuSerif-48" transform="translate(527.6875 0)"/>
      <use xlink:href="#DejaVuSerif-53" transform="translate(586.875 0)"/>
     </g>
    </g>
   </g>
   <g id="matplotlib.axis_2">
    <g id="ytick_1">
     <g id="line2d_11">
      <path d="M 34.941641 66.528 
L 121.787614 66.528 
" clip-path="url(#p5f9601f9ca)" style="fill: none; stroke: #b0b0b0; stroke-opacity: 0.25; stroke-width: 0.4; stroke-linecap: square"/>
     </g>
     <g id="line2d_12">
      <defs>
       <path id="m24928d109b" d="M 0 0 
L -3.5 0 
" style="stroke: #000000; stroke-width: 0.8"/>
      </defs>
      <g>
       <use xlink:href="#m24928d109b" x="34.941641" y="66.528" style="stroke: #000000; stroke-width: 0.8"/>
      </g>
     </g>
     <g id="text_7">
      <!-- 0 -->
      <g transform="translate(24.124141 68.807297) scale(0.06 -0.06)">
       <use xlink:href="#DejaVuSerif-13"/>
      </g>
     </g>
    </g>
    <g id="ytick_2">
     <g id="line2d_13">
      <path d="M 34.941641 51.711356 
L 121.787614 51.711356 
" clip-path="url(#p5f9601f9ca)" style="fill: none; stroke: #b0b0b0; stroke-opacity: 0.25; stroke-width: 0.4; stroke-linecap: square"/>
     </g>
     <g id="line2d_14">
      <g>
       <use xlink:href="#m24928d109b" x="34.941641" y="51.711356" style="stroke: #000000; stroke-width: 0.8"/>
      </g>
     </g>
     <g id="text_8">
      <!-- 500 -->
      <g transform="translate(16.489141 53.990653) scale(0.06 -0.06)">
       <use xlink:href="#DejaVuSerif-18"/>
       <use xlink:href="#DejaVuSerif-13" transform="translate(63.625 0)"/>
       <use xlink:href="#DejaVuSerif-13" transform="translate(127.25 0)"/>
      </g>
     </g>
    </g>
    <g id="ytick_3">
     <g id="line2d_15">
      <path d="M 34.941641 36.894712 
L 121.787614 36.894712 
" clip-path="url(#p5f9601f9ca)" style="fill: none; stroke: #b0b0b0; stroke-opacity: 0.25; stroke-width: 0.4; stroke-linecap: square"/>
     </g>
     <g id="line2d_16">
      <g>
       <use xlink:href="#m24928d109b" x="34.941641" y="36.894712" style="stroke: #000000; stroke-width: 0.8"/>
      </g>
     </g>
     <g id="text_9">
      <!-- 1000 -->
      <g transform="translate(12.671641 39.174009) scale(0.06 -0.06)">
       <use xlink:href="#DejaVuSerif-14"/>
       <use xlink:href="#DejaVuSerif-13" transform="translate(63.625 0)"/>
       <use xlink:href="#DejaVuSerif-13" transform="translate(127.25 0)"/>
       <use xlink:href="#DejaVuSerif-13" transform="translate(190.875 0)"/>
      </g>
     </g>
    </g>
    <g id="ytick_4">
     <g id="line2d_17">
      <path d="M 34.941641 22.078068 
L 121.787614 22.078068 
" clip-path="url(#p5f9601f9ca)" style="fill: none; stroke: #b0b0b0; stroke-opacity: 0.25; stroke-width: 0.4; stroke-linecap: square"/>
     </g>
     <g id="line2d_18">
      <g>
       <use xlink:href="#m24928d109b" x="34.941641" y="22.078068" style="stroke: #000000; stroke-width: 0.8"/>
      </g>
     </g>
     <g id="text_10">
      <!-- 1500 -->
      <g transform="translate(12.671641 24.357365) scale(0.06 -0.06)">
       <use xlink:href="#DejaVuSerif-14"/>
       <use xlink:href="#DejaVuSerif-18" transform="translate(63.625 0)"/>
       <use xlink:href="#DejaVuSerif-13" transform="translate(127.25 0)"/>
       <use xlink:href="#DejaVuSerif-13" transform="translate(190.875 0)"/>
      </g>
     </g>
    </g>
    <g id="text_11">
     <!-- elapsed time (ms) -->
     <g transform="translate(6.99 71.80775) rotate(-90) scale(0.07 -0.07)">
      <defs>
       <path id="DejaVuSerif-4f" d="M 1313 331 
L 1856 331 
L 1856 0 
L 184 0 
L 184 331 
L 738 331 
L 738 4531 
L 184 4531 
L 184 4863 
L 1313 4863 
L 1313 331 
z
" transform="scale(0.015625)"/>
       <path id="DejaVuSerif-47" d="M 3359 331 
L 3909 331 
L 3909 0 
L 2784 0 
L 2784 519 
Q 2616 206 2355 57 
Q 2094 -91 1709 -91 
Q 1097 -91 708 395 
Q 319 881 319 1663 
Q 319 2444 706 2928 
Q 1094 3413 1709 3413 
Q 2094 3413 2355 3264 
Q 2616 3116 2784 2803 
L 2784 4531 
L 2241 4531 
L 2241 4863 
L 3359 4863 
L 3359 331 
z
M 2784 1497 
L 2784 1825 
Q 2784 2422 2554 2737 
Q 2325 3053 1888 3053 
Q 1444 3053 1217 2703 
Q 991 2353 991 1663 
Q 991 975 1217 622 
Q 1444 269 1888 269 
Q 2325 269 2554 583 
Q 2784 897 2784 1497 
z
" transform="scale(0.015625)"/>
       <path id="DejaVuSerif-50" d="M 3316 2675 
Q 3481 3041 3739 3227 
Q 3997 3413 4341 3413 
Q 4863 3413 5119 3089 
Q 5375 2766 5375 2113 
L 5375 331 
L 5894 331 
L 5894 0 
L 4300 0 
L 4300 331 
L 4800 331 
L 4800 2047 
Q 4800 2556 4650 2772 
Q 4500 2988 4153 2988 
Q 3769 2988 3567 2697 
Q 3366 2406 3366 1850 
L 3366 331 
L 3866 331 
L 3866 0 
L 2291 0 
L 2291 331 
L 2791 331 
L 2791 2069 
Q 2791 2566 2641 2777 
Q 2491 2988 2144 2988 
Q 1759 2988 1557 2697 
Q 1356 2406 1356 1850 
L 1356 331 
L 1856 331 
L 1856 0 
L 263 0 
L 263 331 
L 781 331 
L 781 2994 
L 231 2994 
L 231 3322 
L 1356 3322 
L 1356 2731 
Q 1516 3063 1762 3238 
Q 2009 3413 2322 3413 
Q 2709 3413 2968 3220 
Q 3228 3028 3316 2675 
z
" transform="scale(0.015625)"/>
       <path id="DejaVuSerif-b" d="M 2041 -997 
Q 1281 -656 893 83 
Q 506 822 506 1931 
Q 506 3044 893 3783 
Q 1281 4522 2041 4863 
L 2041 4556 
Q 1559 4225 1350 3623 
Q 1141 3022 1141 1931 
Q 1141 844 1350 242 
Q 1559 -359 2041 -691 
L 2041 -997 
z
" transform="scale(0.015625)"/>
       <path id="DejaVuSerif-c" d="M 453 -997 
L 453 -691 
Q 934 -359 1145 242 
Q 1356 844 1356 1931 
Q 1356 3022 1145 3623 
Q 934 4225 453 4556 
L 453 4863 
Q 1216 4522 1603 3783 
Q 1991 3044 1991 1931 
Q 1991 822 1603 83 
Q 1216 -656 453 -997 
z
" transform="scale(0.015625)"/>
      </defs>
      <use xlink:href="#DejaVuSerif-48"/>
      <use xlink:href="#DejaVuSerif-4f" transform="translate(59.1875 0)"/>
      <use xlink:href="#DejaVuSerif-44" transform="translate(91.171875 0)"/>
      <use xlink:href="#DejaVuSerif-53" transform="translate(150.796875 0)"/>
      <use xlink:href="#DejaVuSerif-56" transform="translate(214.8125 0)"/>
      <use xlink:href="#DejaVuSerif-48" transform="translate(266.125 0)"/>
      <use xlink:href="#DejaVuSerif-47" transform="translate(325.3125 0)"/>
      <use xlink:href="#DejaVuSerif-3" transform="translate(389.328125 0)"/>
      <use xlink:href="#DejaVuSerif-57" transform="translate(421.109375 0)"/>
      <use xlink:href="#DejaVuSerif-4c" transform="translate(461.296875 0)"/>
      <use xlink:href="#DejaVuSerif-50" transform="translate(493.28125 0)"/>
      <use xlink:href="#DejaVuSerif-48" transform="translate(588.109375 0)"/>
      <use xlink:href="#DejaVuSerif-3" transform="translate(647.296875 0)"/>
      <use xlink:href="#DejaVuSerif-b" transform="translate(679.078125 0)"/>
      <use xlink:href="#DejaVuSerif-50" transform="translate(718.09375 0)"/>
      <use xlink:href="#DejaVuSerif-56" transform="translate(812.921875 0)"/>
      <use xlink:href="#DejaVuSerif-c" transform="translate(864.234375 0)"/>
     </g>
    </g>
   </g>
   <g id="line2d_19">
    <path d="M 37.11279 64.391071 
L 41.455089 61.849073 
L 45.797387 59.303941 
L 50.139686 56.714186 
L 54.481985 54.193053 
L 58.824283 51.592068 
L 63.166582 49.131814 
L 67.508881 46.633859 
L 71.851179 44.194527 
L 76.193478 41.699535 
L 80.535776 39.127232 
L 84.878075 36.591824 
L 89.220374 34.042503 
L 93.562672 31.51789 
L 97.904971 29.031797 
L 102.24727 26.526862 
L 106.589568 24.034298 
L 110.931867 21.456683 
L 115.274166 18.885964 
L 119.616464 16.36848 
" clip-path="url(#p5f9601f9ca)" style="fill: none; stroke: #1f77b4; stroke-width: 1.1; stroke-linecap: square"/>
   </g>
   <g id="line2d_20">
    <path d="M 37.11279 64.584535 
L 41.455089 62.304006 
L 45.797387 59.989207 
L 50.139686 57.897976 
L 54.481985 55.849339 
L 58.824283 53.735743 
L 63.166582 51.658286 
L 67.508881 49.565781 
L 71.851179 47.459128 
L 76.193478 45.382197 
L 80.535776 43.326261 
L 84.878075 41.214695 
L 89.220374 39.119413 
L 93.562672 37.011913 
L 97.904971 34.921222 
L 102.24727 32.812498 
L 106.589568 30.676261 
L 110.931867 28.591277 
L 115.274166 26.410727 
L 119.616464 24.123899 
" clip-path="url(#p5f9601f9ca)" style="fill: none; stroke: #2ca02c; stroke-width: 1.1; stroke-linecap: square"/>
   </g>
   <g id="line2d_21">
    <path d="M 37.11279 64.496185 
L 41.455089 62.125948 
L 45.797387 59.740848 
L 50.139686 57.651992 
L 54.481985 55.618469 
L 58.824283 53.584574 
L 63.166582 51.547206 
L 67.508881 49.46628 
L 71.851179 47.431967 
L 76.193478 45.426862 
L 80.535776 43.376081 
L 84.878075 41.343073 
L 89.220374 39.332361 
L 93.562672 37.34511 
L 97.904971 35.310139 
L 102.24727 33.315693 
L 106.589568 31.294421 
L 110.931867 29.184515 
L 115.274166 27.021158 
L 119.616464 24.64925 
" clip-path="url(#p5f9601f9ca)" style="fill: none; stroke: #d62728; stroke-width: 1.1; stroke-linecap: square"/>
   </g>
   <g id="line2d_22">
    <path d="M 37.11279 64.975221 
L 41.455089 62.968693 
L 45.797387 61.043792 
L 50.139686 59.08022 
L 54.481985 57.092469 
L 58.824283 55.031053 
L 63.166582 52.995588 
L 67.508881 51.018267 
L 71.851179 49.013801 
L 76.193478 46.967198 
L 80.535776 45.024111 
L 84.878075 42.943127 
L 89.220374 40.898682 
L 93.562672 38.818745 
L 97.904971 36.763325 
L 102.24727 34.711679 
L 106.589568 32.621269 
L 110.931867 30.566964 
L 115.274166 28.542235 
L 119.616464 26.513202 
" clip-path="url(#p5f9601f9ca)" style="fill: none; stroke-dasharray: 4.07,1.76; stroke-dashoffset: 0; stroke: #444444; stroke-width: 1.1"/>
   </g>
   <g id="patch_7">
    <path d="M 34.941641 66.528 
L 34.941641 13.86 
" style="fill: none; stroke: #000000; stroke-width: 0.8; stroke-linejoin: miter; stroke-linecap: square"/>
   </g>
   <g id="patch_8">
    <path d="M 121.787614 66.528 
L 121.787614 13.86 
" style="fill: none; stroke: #000000; stroke-width: 0.8; stroke-linejoin: miter; stroke-linecap: square"/>
   </g>
   <g id="patch_9">
    <path d="M 34.941641 66.528 
L 121.787614 66.528 
" style="fill: none; stroke: #000000; stroke-width: 0.8; stroke-linejoin: miter; stroke-linecap: square"/>
   </g>
   <g id="patch_10">
    <path d="M 34.941641 13.86 
L 121.787614 13.86 
" style="fill: none; stroke: #000000; stroke-width: 0.8; stroke-linejoin: miter; stroke-linecap: square"/>
   </g>
   <g id="text_12">
    <!-- (a) completion time -->
    <g transform="translate(43.700408 7.86) scale(0.07 -0.07)">
     <defs>
      <path id="DejaVuSerif-46" d="M 3291 997 
Q 3169 466 2822 187 
Q 2475 -91 1925 -91 
Q 1200 -91 759 389 
Q 319 869 319 1663 
Q 319 2459 759 2936 
Q 1200 3413 1925 3413 
Q 2241 3413 2553 3339 
Q 2866 3266 3181 3116 
L 3181 2266 
L 2847 2266 
Q 2781 2703 2561 2903 
Q 2341 3103 1931 3103 
Q 1466 3103 1228 2742 
Q 991 2381 991 1663 
Q 991 944 1227 581 
Q 1463 219 1931 219 
Q 2303 219 2525 412 
Q 2747 606 2828 997 
L 3291 997 
z
" transform="scale(0.015625)"/>
      <path id="DejaVuSerif-52" d="M 1925 219 
Q 2388 219 2623 584 
Q 2859 950 2859 1663 
Q 2859 2375 2623 2739 
Q 2388 3103 1925 3103 
Q 1463 3103 1227 2739 
Q 991 2375 991 1663 
Q 991 950 1228 584 
Q 1466 219 1925 219 
z
M 1925 -91 
Q 1200 -91 759 389 
Q 319 869 319 1663 
Q 319 2456 758 2934 
Q 1197 3413 1925 3413 
Q 2653 3413 3092 2934 
Q 3531 2456 3531 1663 
Q 3531 869 3092 389 
Q 2653 -91 1925 -91 
z
" transform="scale(0.015625)"/>
     </defs>
     <use xlink:href="#DejaVuSerif-b"/>
     <use xlink:href="#DejaVuSerif-44" transform="translate(39.015625 0)"/>
     <use xlink:href="#DejaVuSerif-c" transform="translate(98.640625 0)"/>
     <use xlink:href="#DejaVuSerif-3" transform="translate(137.65625 0)"/>
     <use xlink:href="#DejaVuSerif-46" transform="translate(169.4375 0)"/>
     <use xlink:href="#DejaVuSerif-52" transform="translate(225.4375 0)"/>
     <use xlink:href="#DejaVuSerif-50" transform="translate(285.640625 0)"/>
     <use xlink:href="#DejaVuSerif-53" transform="translate(380.46875 0)"/>
     <use xlink:href="#DejaVuSerif-4f" transform="translate(444.484375 0)"/>
     <use xlink:href="#DejaVuSerif-48" transform="translate(476.46875 0)"/>
     <use xlink:href="#DejaVuSerif-57" transform="translate(535.65625 0)"/>
     <use xlink:href="#DejaVuSerif-4c" transform="translate(575.84375 0)"/>
     <use xlink:href="#DejaVuSerif-52" transform="translate(607.828125 0)"/>
     <use xlink:href="#DejaVuSerif-51" transform="translate(668.03125 0)"/>
     <use xlink:href="#DejaVuSerif-3" transform="translate(732.4375 0)"/>
     <use xlink:href="#DejaVuSerif-57" transform="translate(764.21875 0)"/>
     <use xlink:href="#DejaVuSerif-4c" transform="translate(804.40625 0)"/>
     <use xlink:href="#DejaVuSerif-50" transform="translate(836.390625 0)"/>
     <use xlink:href="#DejaVuSerif-48" transform="translate(931.21875 0)"/>
    </g>
   </g>
  </g>
  <g id="axes_2">
   <g id="patch_11">
    <path d="M 158.041641 66.528 
L 244.887614 66.528 
L 244.887614 13.86 
L 158.041641 13.86 
z
" style="fill: #ffffff"/>
   </g>
   <g id="FillBetweenPolyCollection_5">
    <defs>
     <path id="mc01621b9a6" d="M 160.21279 -63.209505 
L 160.21279 -61.872361 
L 164.555089 -62.17044 
L 168.897387 -61.431663 
L 173.239686 -61.341734 
L 177.581985 -61.296167 
L 181.924283 -61.297645 
L 186.266582 -61.354236 
L 190.608881 -61.997863 
L 194.951179 -63.106283 
L 199.293478 -62.441002 
L 203.635776 -61.140445 
L 207.978075 -62.390967 
L 212.320374 -61.316263 
L 216.662672 -62.126385 
L 221.004971 -62.176907 
L 225.34727 -61.528916 
L 229.689568 -62.506478 
L 234.031867 -61.73884 
L 238.374166 -61.060803 
L 242.716464 -62.780978 
L 242.716464 -63.7847 
L 242.716464 -63.7847 
L 238.374166 -62.807502 
L 234.031867 -63.612839 
L 229.689568 -62.914015 
L 225.34727 -63.850121 
L 221.004971 -63.886513 
L 216.662672 -63.365875 
L 212.320374 -64.433746 
L 207.978075 -63.126109 
L 203.635776 -61.773366 
L 199.293478 -63.555849 
L 194.951179 -64.504602 
L 190.608881 -63.191489 
L 186.266582 -63.43937 
L 181.924283 -63.174018 
L 177.581985 -63.98345 
L 173.239686 -62.538016 
L 168.897387 -62.200041 
L 164.555089 -63.431889 
L 160.21279 -63.209505 
z
"/>
    </defs>
    <g clip-path="url(#p9c4d56bfcc)">
     <use xlink:href="#mc01621b9a6" x="0" y="111.6" style="fill: #1f77b4; fill-opacity: 0.2"/>
    </g>
   </g>
   <g id="FillBetweenPolyCollection_6">
    <defs>
     <path id="m2ef33907ec" d="M 160.21279 -66.975254 
L 160.21279 -66.134879 
L 164.555089 -67.434524 
L 168.897387 -63.564114 
L 173.239686 -77.419199 
L 177.581985 -73.29638 
L 181.924283 -75.141456 
L 186.266582 -75.171278 
L 190.608881 -74.428821 
L 194.951179 -71.456318 
L 199.293478 -72.364388 
L 203.635776 -73.348745 
L 207.978075 -73.550265 
L 212.320374 -71.392377 
L 216.662672 -74.915901 
L 221.004971 -72.540964 
L 225.34727 -72.486 
L 229.689568 -70.989631 
L 234.031867 -72.577237 
L 238.374166 -70.003296 
L 242.716464 -65.873946 
L 242.716464 -68.44263 
L 242.716464 -68.44263 
L 238.374166 -72.540163 
L 234.031867 -75.186632 
L 229.689568 -75.830628 
L 225.34727 -77.160802 
L 221.004971 -76.013985 
L 216.662672 -76.804371 
L 212.320374 -76.942277 
L 207.978075 -75.627071 
L 203.635776 -76.950406 
L 199.293478 -77.026841 
L 194.951179 -76.613717 
L 190.608881 -75.084834 
L 186.266582 -76.445725 
L 181.924283 -76.02099 
L 177.581985 -78.494516 
L 173.239686 -78.801353 
L 168.897387 -69.543261 
L 164.555089 -67.960146 
L 160.21279 -66.975254 
z
"/>
    </defs>
    <g clip-path="url(#p9c4d56bfcc)">
     <use xlink:href="#m2ef33907ec" x="0" y="111.6" style="fill: #2ca02c; fill-opacity: 0.2"/>
    </g>
   </g>
   <g id="FillBetweenPolyCollection_7">
    <defs>
     <path id="mc207192cc5" d="M 160.21279 -64.804496 
L 160.21279 -64.025475 
L 164.555089 -64.624001 
L 168.897387 -64.680437 
L 173.239686 -69.711674 
L 177.581985 -72.456675 
L 181.924283 -73.78172 
L 186.266582 -73.773074 
L 190.608881 -71.394659 
L 194.951179 -71.716784 
L 199.293478 -75.401219 
L 203.635776 -72.988002 
L 207.978075 -70.313687 
L 212.320374 -75.389528 
L 216.662672 -75.376108 
L 221.004971 -72.614453 
L 225.34727 -72.876211 
L 229.689568 -72.737214 
L 234.031867 -68.8937 
L 238.374166 -65.287789 
L 242.716464 -64.618777 
L 242.716464 -65.183786 
L 242.716464 -65.183786 
L 238.374166 -73.346217 
L 234.031867 -75.503516 
L 229.689568 -76.717364 
L 225.34727 -77.058607 
L 221.004971 -76.895141 
L 216.662672 -79.515515 
L 212.320374 -77.20074 
L 207.978075 -76.075859 
L 203.635776 -74.535182 
L 199.293478 -76.488251 
L 194.951179 -75.071742 
L 190.608881 -78.505009 
L 186.266582 -74.984032 
L 181.924283 -76.812545 
L 177.581985 -75.438029 
L 173.239686 -76.566544 
L 168.897387 -65.556566 
L 164.555089 -64.779707 
L 160.21279 -64.804496 
z
"/>
    </defs>
    <g clip-path="url(#p9c4d56bfcc)">
     <use xlink:href="#mc207192cc5" x="0" y="111.6" style="fill: #d62728; fill-opacity: 0.2"/>
    </g>
   </g>
   <g id="FillBetweenPolyCollection_8">
    <defs>
     <path id="m4007fd33b4" d="M 160.21279 -83.693789 
L 160.21279 -83.693789 
L 164.555089 -77.400582 
L 168.897387 -78.733322 
L 173.239686 -79.363219 
L 177.581985 -78.393111 
L 181.924283 -75.142769 
L 186.266582 -76.535958 
L 190.608881 -78.406679 
L 194.951179 -75.852885 
L 199.293478 -75.442296 
L 203.635776 -80.7649 
L 207.978075 -75.088995 
L 212.320374 -77.071352 
L 216.662672 -74.118267 
L 221.004971 -75.787496 
L 225.34727 -82.074738 
L 229.689568 -74.424907 
L 234.031867 -73.005863 
L 238.374166 -75.860348 
L 242.716464 -77.108192 
L 242.716464 -77.108192 
L 242.716464 -77.108192 
L 238.374166 -75.860348 
L 234.031867 -73.005863 
L 229.689568 -74.424907 
L 225.34727 -82.074738 
L 221.004971 -75.787496 
L 216.662672 -74.118267 
L 212.320374 -77.071352 
L 207.978075 -75.088995 
L 203.635776 -80.7649 
L 199.293478 -75.442296 
L 194.951179 -75.852885 
L 190.608881 -78.406679 
L 186.266582 -76.535958 
L 181.924283 -75.142769 
L 177.581985 -78.393111 
L 173.239686 -79.363219 
L 168.897387 -78.733322 
L 164.555089 -77.400582 
L 160.21279 -83.693789 
z
"/>
    </defs>
    <g clip-path="url(#p9c4d56bfcc)">
     <use xlink:href="#m4007fd33b4" x="0" y="111.6" style="fill: #444444; fill-opacity: 0.2"/>
    </g>
   </g>
   <g id="patch_12">
    <path d="M 158.041641 66.528 
L 162.383939 66.528 
L 162.383939 13.86 
L 158.041641 13.86 
z
" clip-path="url(#p9c4d56bfcc)" style="opacity: 0.07"/>
   </g>
   <g id="patch_13">
    <path d="M 162.383939 66.528 
L 166.726238 66.528 
L 166.726238 13.86 
L 162.383939 13.86 
z
" clip-path="url(#p9c4d56bfcc)" style="opacity: 0.07"/>
   </g>
   <g id="patch_14">
    <path d="M 166.726238 66.528 
L 171.068537 66.528 
L 171.068537 13.86 
L 166.726238 13.86 
z
" clip-path="url(#p9c4d56bfcc)" style="opacity: 0.07"/>
   </g>
   <g id="patch_15">
    <path d="M 240.545315 66.528 
L 244.887614 66.528 
L 244.887614 13.86 
L 240.545315 13.86 
z
" clip-path="url(#p9c4d56bfcc)" style="opacity: 0.07"/>
   </g>
   <g id="matplotlib.axis_3">
    <g id="xtick_6">
     <g id="line2d_23">
      <path d="M 160.21279 66.528 
L 160.21279 13.86 
" clip-path="url(#p9c4d56bfcc)" style="fill: none; stroke: #b0b0b0; stroke-opacity: 0.25; stroke-width: 0.4; stroke-linecap: square"/>
     </g>
     <g id="line2d_24">
      <g>
       <use xlink:href="#m1fa0b80df0" x="160.21279" y="66.528" style="stroke: #000000; stroke-width: 0.8"/>
      </g>
     </g>
     <g id="text_13">
      <!-- 1 -->
      <g transform="translate(158.30404 78.086594) scale(0.06 -0.06)">
       <use xlink:href="#DejaVuSerif-14"/>
      </g>
     </g>
    </g>
    <g id="xtick_7">
     <g id="line2d_25">
      <path d="M 177.581985 66.528 
L 177.581985 13.86 
" clip-path="url(#p9c4d56bfcc)" style="fill: none; stroke: #b0b0b0; stroke-opacity: 0.25; stroke-width: 0.4; stroke-linecap: square"/>
     </g>
     <g id="line2d_26">
      <g>
       <use xlink:href="#m1fa0b80df0" x="177.581985" y="66.528" style="stroke: #000000; stroke-width: 0.8"/>
      </g>
     </g>
     <g id="text_14">
      <!-- 5 -->
      <g transform="translate(175.673235 78.086594) scale(0.06 -0.06)">
       <use xlink:href="#DejaVuSerif-18"/>
      </g>
     </g>
    </g>
    <g id="xtick_8">
     <g id="line2d_27">
      <path d="M 199.293478 66.528 
L 199.293478 13.86 
" clip-path="url(#p9c4d56bfcc)" style="fill: none; stroke: #b0b0b0; stroke-opacity: 0.25; stroke-width: 0.4; stroke-linecap: square"/>
     </g>
     <g id="line2d_28">
      <g>
       <use xlink:href="#m1fa0b80df0" x="199.293478" y="66.528" style="stroke: #000000; stroke-width: 0.8"/>
      </g>
     </g>
     <g id="text_15">
      <!-- 10 -->
      <g transform="translate(195.475978 78.086594) scale(0.06 -0.06)">
       <use xlink:href="#DejaVuSerif-14"/>
       <use xlink:href="#DejaVuSerif-13" transform="translate(63.625 0)"/>
      </g>
     </g>
    </g>
    <g id="xtick_9">
     <g id="line2d_29">
      <path d="M 221.004971 66.528 
L 221.004971 13.86 
" clip-path="url(#p9c4d56bfcc)" style="fill: none; stroke: #b0b0b0; stroke-opacity: 0.25; stroke-width: 0.4; stroke-linecap: square"/>
     </g>
     <g id="line2d_30">
      <g>
       <use xlink:href="#m1fa0b80df0" x="221.004971" y="66.528" style="stroke: #000000; stroke-width: 0.8"/>
      </g>
     </g>
     <g id="text_16">
      <!-- 15 -->
      <g transform="translate(217.187471 78.086594) scale(0.06 -0.06)">
       <use xlink:href="#DejaVuSerif-14"/>
       <use xlink:href="#DejaVuSerif-18" transform="translate(63.625 0)"/>
      </g>
     </g>
    </g>
    <g id="xtick_10">
     <g id="line2d_31">
      <path d="M 242.716464 66.528 
L 242.716464 13.86 
" clip-path="url(#p9c4d56bfcc)" style="fill: none; stroke: #b0b0b0; stroke-opacity: 0.25; stroke-width: 0.4; stroke-linecap: square"/>
     </g>
     <g id="line2d_32">
      <g>
       <use xlink:href="#m1fa0b80df0" x="242.716464" y="66.528" style="stroke: #000000; stroke-width: 0.8"/>
      </g>
     </g>
     <g id="text_17">
      <!-- 20 -->
      <g transform="translate(238.898964 78.086594) scale(0.06 -0.06)">
       <use xlink:href="#DejaVuSerif-15"/>
       <use xlink:href="#DejaVuSerif-13" transform="translate(63.625 0)"/>
      </g>
     </g>
    </g>
    <g id="text_18">
     <!-- training step -->
     <g transform="translate(178.683455 88.846359) scale(0.07 -0.07)">
      <use xlink:href="#DejaVuSerif-57"/>
      <use xlink:href="#DejaVuSerif-55" transform="translate(40.1875 0)"/>
      <use xlink:href="#DejaVuSerif-44" transform="translate(87.984375 0)"/>
      <use xlink:href="#DejaVuSerif-4c" transform="translate(147.609375 0)"/>
      <use xlink:href="#DejaVuSerif-51" transform="translate(179.59375 0)"/>
      <use xlink:href="#DejaVuSerif-4c" transform="translate(244 0)"/>
      <use xlink:href="#DejaVuSerif-51" transform="translate(275.984375 0)"/>
      <use xlink:href="#DejaVuSerif-4a" transform="translate(340.390625 0)"/>
      <use xlink:href="#DejaVuSerif-3" transform="translate(404.40625 0)"/>
      <use xlink:href="#DejaVuSerif-56" transform="translate(436.1875 0)"/>
      <use xlink:href="#DejaVuSerif-57" transform="translate(487.5 0)"/>
      <use xlink:href="#DejaVuSerif-48" transform="translate(527.6875 0)"/>
      <use xlink:href="#DejaVuSerif-53" transform="translate(586.875 0)"/>
     </g>
    </g>
   </g>
   <g id="matplotlib.axis_4">
    <g id="ytick_5">
     <g id="line2d_33">
      <path d="M 158.041641 66.528 
L 244.887614 66.528 
" clip-path="url(#p9c4d56bfcc)" style="fill: none; stroke: #b0b0b0; stroke-opacity: 0.25; stroke-width: 0.4; stroke-linecap: square"/>
     </g>
     <g id="line2d_34">
      <g>
       <use xlink:href="#m24928d109b" x="158.041641" y="66.528" style="stroke: #000000; stroke-width: 0.8"/>
      </g>
     </g>
     <g id="text_19">
      <!-- 0 -->
      <g transform="translate(147.224141 68.807297) scale(0.06 -0.06)">
       <use xlink:href="#DejaVuSerif-13"/>
      </g>
     </g>
    </g>
    <g id="ytick_6">
     <g id="line2d_35">
      <path d="M 158.041641 53.361 
L 244.887614 53.361 
" clip-path="url(#p9c4d56bfcc)" style="fill: none; stroke: #b0b0b0; stroke-opacity: 0.25; stroke-width: 0.4; stroke-linecap: square"/>
     </g>
     <g id="line2d_36">
      <g>
       <use xlink:href="#m24928d109b" x="158.041641" y="53.361" style="stroke: #000000; stroke-width: 0.8"/>
      </g>
     </g>
     <g id="text_20">
      <!-- 25 -->
      <g transform="translate(143.406641 55.640297) scale(0.06 -0.06)">
       <use xlink:href="#DejaVuSerif-15"/>
       <use xlink:href="#DejaVuSerif-18" transform="translate(63.625 0)"/>
      </g>
     </g>
    </g>
    <g id="ytick_7">
     <g id="line2d_37">
      <path d="M 158.041641 40.194 
L 244.887614 40.194 
" clip-path="url(#p9c4d56bfcc)" style="fill: none; stroke: #b0b0b0; stroke-opacity: 0.25; stroke-width: 0.4; stroke-linecap: square"/>
     </g>
     <g id="line2d_38">
      <g>
       <use xlink:href="#m24928d109b" x="158.041641" y="40.194" style="stroke: #000000; stroke-width: 0.8"/>
      </g>
     </g>
     <g id="text_21">
      <!-- 50 -->
      <g transform="translate(143.406641 42.473297) scale(0.06 -0.06)">
       <use xlink:href="#DejaVuSerif-18"/>
       <use xlink:href="#DejaVuSerif-13" transform="translate(63.625 0)"/>
      </g>
     </g>
    </g>
    <g id="ytick_8">
     <g id="line2d_39">
      <path d="M 158.041641 27.027 
L 244.887614 27.027 
" clip-path="url(#p9c4d56bfcc)" style="fill: none; stroke: #b0b0b0; stroke-opacity: 0.25; stroke-width: 0.4; stroke-linecap: square"/>
     </g>
     <g id="line2d_40">
      <g>
       <use xlink:href="#m24928d109b" x="158.041641" y="27.027" style="stroke: #000000; stroke-width: 0.8"/>
      </g>
     </g>
     <g id="text_22">
      <!-- 75 -->
      <g transform="translate(143.406641 29.306297) scale(0.06 -0.06)">
       <defs>
        <path id="DejaVuSerif-1a" d="M 3609 4347 
L 1784 0 
L 1319 0 
L 3059 4153 
L 903 4153 
L 903 3578 
L 538 3578 
L 538 4666 
L 3609 4666 
L 3609 4347 
z
" transform="scale(0.015625)"/>
       </defs>
       <use xlink:href="#DejaVuSerif-1a"/>
       <use xlink:href="#DejaVuSerif-18" transform="translate(63.625 0)"/>
      </g>
     </g>
    </g>
    <g id="ytick_9">
     <g id="line2d_41">
      <path d="M 158.041641 13.86 
L 244.887614 13.86 
" clip-path="url(#p9c4d56bfcc)" style="fill: none; stroke: #b0b0b0; stroke-opacity: 0.25; stroke-width: 0.4; stroke-linecap: square"/>
     </g>
     <g id="line2d_42">
      <g>
       <use xlink:href="#m24928d109b" x="158.041641" y="13.86" style="stroke: #000000; stroke-width: 0.8"/>
      </g>
     </g>
     <g id="text_23">
      <!-- 100 -->
      <g transform="translate(139.589141 16.139297) scale(0.06 -0.06)">
       <use xlink:href="#DejaVuSerif-14"/>
       <use xlink:href="#DejaVuSerif-13" transform="translate(63.625 0)"/>
       <use xlink:href="#DejaVuSerif-13" transform="translate(127.25 0)"/>
      </g>
     </g>
    </g>
    <g id="text_24">
     <!-- utilization (%) -->
     <g transform="translate(133.9075 65.200406) rotate(-90) scale(0.07 -0.07)">
      <defs>
       <path id="DejaVuSerif-58" d="M 2266 3322 
L 3341 3322 
L 3341 331 
L 3884 331 
L 3884 0 
L 2766 0 
L 2766 588 
Q 2606 256 2353 82 
Q 2100 -91 1766 -91 
Q 1213 -91 952 223 
Q 691 538 691 1209 
L 691 2988 
L 172 2988 
L 172 3322 
L 1269 3322 
L 1269 1388 
Q 1269 781 1417 556 
Q 1566 331 1947 331 
Q 2347 331 2556 625 
Q 2766 919 2766 1478 
L 2766 2988 
L 2266 2988 
L 2266 3322 
z
" transform="scale(0.015625)"/>
       <path id="DejaVuSerif-5d" d="M 256 0 
L 256 269 
L 2338 2988 
L 691 2988 
L 691 2413 
L 359 2413 
L 359 3322 
L 3078 3322 
L 3078 3053 
L 997 331 
L 2803 331 
L 2803 934 
L 3138 934 
L 3138 0 
L 256 0 
z
" transform="scale(0.015625)"/>
       <path id="DejaVuSerif-8" d="M 1434 4459 
Q 1159 4459 1004 4200 
Q 850 3941 850 3475 
Q 850 3016 1008 2753 
Q 1166 2491 1434 2491 
Q 1700 2491 1854 2752 
Q 2009 3013 2009 3475 
Q 2009 3938 1854 4198 
Q 1700 4459 1434 4459 
z
M 4653 2169 
Q 4381 2169 4226 1906 
Q 4072 1644 4072 1178 
Q 4072 719 4228 458 
Q 4384 197 4653 197 
Q 4922 197 5075 458 
Q 5228 719 5228 1178 
Q 5228 1641 5073 1905 
Q 4919 2169 4653 2169 
z
M 4653 2450 
Q 5147 2450 5437 2106 
Q 5728 1763 5728 1178 
Q 5728 594 5436 251 
Q 5144 -91 4653 -91 
Q 4153 -91 3862 251 
Q 3572 594 3572 1178 
Q 3572 1766 3864 2108 
Q 4156 2450 4653 2450 
z
M 4263 4750 
L 4738 4750 
L 1819 -91 
L 1344 -91 
L 4263 4750 
z
M 1428 4750 
Q 1922 4750 2215 4408 
Q 2509 4066 2509 3481 
Q 2509 2891 2217 2550 
Q 1925 2209 1428 2209 
Q 931 2209 642 2551 
Q 353 2894 353 3481 
Q 353 4063 643 4406 
Q 934 4750 1428 4750 
z
" transform="scale(0.015625)"/>
      </defs>
      <use xlink:href="#DejaVuSerif-58"/>
      <use xlink:href="#DejaVuSerif-57" transform="translate(64.40625 0)"/>
      <use xlink:href="#DejaVuSerif-4c" transform="translate(104.59375 0)"/>
      <use xlink:href="#DejaVuSerif-4f" transform="translate(136.578125 0)"/>
      <use xlink:href="#DejaVuSerif-4c" transform="translate(168.5625 0)"/>
      <use xlink:href="#DejaVuSerif-5d" transform="translate(200.546875 0)"/>
      <use xlink:href="#DejaVuSerif-44" transform="translate(253.234375 0)"/>
      <use xlink:href="#DejaVuSerif-57" transform="translate(312.859375 0)"/>
      <use xlink:href="#DejaVuSerif-4c" transform="translate(353.046875 0)"/>
      <use xlink:href="#DejaVuSerif-52" transform="translate(385.03125 0)"/>
      <use xlink:href="#DejaVuSerif-51" transform="translate(445.234375 0)"/>
      <use xlink:href="#DejaVuSerif-3" transform="translate(509.640625 0)"/>
      <use xlink:href="#DejaVuSerif-b" transform="translate(541.421875 0)"/>
      <use xlink:href="#DejaVuSerif-8" transform="translate(580.4375 0)"/>
      <use xlink:href="#DejaVuSerif-c" transform="translate(675.453125 0)"/>
     </g>
    </g>
   </g>
   <g id="line2d_43">
    <path d="M 160.21279 49.115442 
L 164.555089 48.736304 
L 168.897387 49.867424 
L 173.239686 49.839283 
L 177.581985 49.067502 
L 181.924283 49.362842 
L 186.266582 48.936792 
L 190.608881 49.20066 
L 194.951179 47.791969 
L 199.293478 48.578569 
L 203.635776 50.113562 
L 207.978075 48.959902 
L 212.320374 49.013914 
L 216.662672 49.005263 
L 221.004971 48.633309 
L 225.34727 48.724072 
L 229.689568 48.858041 
L 234.031867 48.813133 
L 238.374166 49.405808 
L 242.716464 48.444476 
" clip-path="url(#p9c4d56bfcc)" style="fill: none; stroke: #1f77b4; stroke-width: 1.1; stroke-linecap: square"/>
   </g>
   <g id="line2d_44">
    <path d="M 160.21279 45.136293 
L 164.555089 43.877327 
L 168.897387 44.457667 
L 173.239686 33.513485 
L 177.581985 36.265158 
L 181.924283 36.160592 
L 186.266582 35.656927 
L 190.608881 36.903443 
L 194.951179 37.425625 
L 199.293478 36.897834 
L 203.635776 36.316716 
L 207.978075 37.243027 
L 212.320374 37.189834 
L 216.662672 35.670472 
L 221.004971 37.429964 
L 225.34727 37.082351 
L 229.689568 37.873932 
L 234.031867 37.452576 
L 238.374166 40.711396 
L 242.716464 44.234146 
" clip-path="url(#p9c4d56bfcc)" style="fill: none; stroke: #2ca02c; stroke-width: 1.1; stroke-linecap: square"/>
   </g>
   <g id="line2d_45">
    <path d="M 160.21279 47.159933 
L 164.555089 46.876303 
L 168.897387 46.533553 
L 173.239686 39.00201 
L 177.581985 37.43202 
L 181.924283 36.419779 
L 186.266582 37.239294 
L 190.608881 37.558411 
L 194.951179 38.733878 
L 199.293478 35.77708 
L 203.635776 37.943371 
L 207.978075 37.911199 
L 212.320374 35.316247 
L 216.662672 34.496265 
L 221.004971 37.457873 
L 225.34727 36.57329 
L 229.689568 36.481359 
L 234.031867 40.144416 
L 238.374166 41.266917 
L 242.716464 46.775698 
" clip-path="url(#p9c4d56bfcc)" style="fill: none; stroke: #d62728; stroke-width: 1.1; stroke-linecap: square"/>
   </g>
   <g id="line2d_46">
    <path d="M 160.21279 27.906211 
L 164.555089 34.199418 
L 168.897387 32.866678 
L 173.239686 32.236781 
L 177.581985 33.206889 
L 181.924283 36.457231 
L 186.266582 35.064042 
L 190.608881 33.193321 
L 194.951179 35.747115 
L 199.293478 36.157704 
L 203.635776 30.8351 
L 207.978075 36.511005 
L 212.320374 34.528648 
L 216.662672 37.481733 
L 221.004971 35.812504 
L 225.34727 29.525262 
L 229.689568 37.175093 
L 234.031867 38.594137 
L 238.374166 35.739652 
L 242.716464 34.491808 
" clip-path="url(#p9c4d56bfcc)" style="fill: none; stroke-dasharray: 4.07,1.76; stroke-dashoffset: 0; stroke: #444444; stroke-width: 1.1"/>
   </g>
   <g id="patch_16">
    <path d="M 158.041641 66.528 
L 158.041641 13.86 
" style="fill: none; stroke: #000000; stroke-width: 0.8; stroke-linejoin: miter; stroke-linecap: square"/>
   </g>
   <g id="patch_17">
    <path d="M 244.887614 66.528 
L 244.887614 13.86 
" style="fill: none; stroke: #000000; stroke-width: 0.8; stroke-linejoin: miter; stroke-linecap: square"/>
   </g>
   <g id="patch_18">
    <path d="M 158.041641 66.528 
L 244.887614 66.528 
" style="fill: none; stroke: #000000; stroke-width: 0.8; stroke-linejoin: miter; stroke-linecap: square"/>
   </g>
   <g id="patch_19">
    <path d="M 158.041641 13.86 
L 244.887614 13.86 
" style="fill: none; stroke: #000000; stroke-width: 0.8; stroke-linejoin: miter; stroke-linecap: square"/>
   </g>
   <g id="text_25">
    <!-- (b) spine-link utilization -->
    <g transform="translate(159.152362 7.86) scale(0.07 -0.07)">
     <defs>
      <path id="DejaVuSerif-45" d="M 738 331 
L 738 4531 
L 184 4531 
L 184 4863 
L 1313 4863 
L 1313 2803 
Q 1481 3116 1742 3264 
Q 2003 3413 2388 3413 
Q 3000 3413 3387 2928 
Q 3775 2444 3775 1663 
Q 3775 881 3387 395 
Q 3000 -91 2388 -91 
Q 2003 -91 1742 57 
Q 1481 206 1313 519 
L 1313 0 
L 184 0 
L 184 331 
L 738 331 
z
M 1313 1497 
Q 1313 897 1542 583 
Q 1772 269 2209 269 
Q 2650 269 2876 622 
Q 3103 975 3103 1663 
Q 3103 2353 2876 2703 
Q 2650 3053 2209 3053 
Q 1772 3053 1542 2737 
Q 1313 2422 1313 1825 
L 1313 1497 
z
" transform="scale(0.015625)"/>
      <path id="DejaVuSerif-10" d="M 281 1959 
L 1881 1959 
L 1881 1472 
L 281 1472 
L 281 1959 
z
" transform="scale(0.015625)"/>
      <path id="DejaVuSerif-4e" d="M 1831 0 
L 219 0 
L 219 331 
L 738 331 
L 738 4531 
L 184 4531 
L 184 4863 
L 1313 4863 
L 1313 1697 
L 2713 2988 
L 2234 2988 
L 2234 3322 
L 3738 3322 
L 3738 2988 
L 3169 2988 
L 2181 2075 
L 3444 331 
L 3922 331 
L 3922 0 
L 2284 0 
L 2284 331 
L 2759 331 
L 1766 1697 
L 1313 1275 
L 1313 331 
L 1831 331 
L 1831 0 
z
" transform="scale(0.015625)"/>
     </defs>
     <use xlink:href="#DejaVuSerif-b"/>
     <use xlink:href="#DejaVuSerif-45" transform="translate(39.015625 0)"/>
     <use xlink:href="#DejaVuSerif-c" transform="translate(103.03125 0)"/>
     <use xlink:href="#DejaVuSerif-3" transform="translate(142.046875 0)"/>
     <use xlink:href="#DejaVuSerif-56" transform="translate(173.828125 0)"/>
     <use xlink:href="#DejaVuSerif-53" transform="translate(225.140625 0)"/>
     <use xlink:href="#DejaVuSerif-4c" transform="translate(289.15625 0)"/>
     <use xlink:href="#DejaVuSerif-51" transform="translate(321.140625 0)"/>
     <use xlink:href="#DejaVuSerif-48" transform="translate(385.546875 0)"/>
     <use xlink:href="#DejaVuSerif-10" transform="translate(444.734375 0)"/>
     <use xlink:href="#DejaVuSerif-4f" transform="translate(478.53125 0)"/>
     <use xlink:href="#DejaVuSerif-4c" transform="translate(510.515625 0)"/>
     <use xlink:href="#DejaVuSerif-51" transform="translate(542.5 0)"/>
     <use xlink:href="#DejaVuSerif-4e" transform="translate(606.90625 0)"/>
     <use xlink:href="#DejaVuSerif-3" transform="translate(667.5 0)"/>
     <use xlink:href="#DejaVuSerif-58" transform="translate(699.28125 0)"/>
     <use xlink:href="#DejaVuSerif-57" transform="translate(763.6875 0)"/>
     <use xlink:href="#DejaVuSerif-4c" transform="translate(803.875 0)"/>
     <use xlink:href="#DejaVuSerif-4f" transform="translate(835.859375 0)"/>
     <use xlink:href="#DejaVuSerif-4c" transform="translate(867.84375 0)"/>
     <use xlink:href="#DejaVuSerif-5d" transform="translate(899.828125 0)"/>
     <use xlink:href="#DejaVuSerif-44" transform="translate(952.515625 0)"/>
     <use xlink:href="#DejaVuSerif-57" transform="translate(1012.140625 0)"/>
     <use xlink:href="#DejaVuSerif-4c" transform="translate(1052.328125 0)"/>
     <use xlink:href="#DejaVuSerif-52" transform="translate(1084.3125 0)"/>
     <use xlink:href="#DejaVuSerif-51" transform="translate(1144.515625 0)"/>
    </g>
   </g>
  </g>
  <g id="legend_1">
   <g id="line2d_47">
    <path d="M 13.501406 94.774125 
L 18.301406 94.774125 
L 23.101406 94.774125 
" style="fill: none; stroke: #1f77b4; stroke-width: 1.1; stroke-linecap: square"/>
   </g>
   <g id="text_26">
    <!-- Baseline (DCQCN, $p=0.005$ dropping) -->
    <g transform="translate(27.901406 96.874125) scale(0.06 -0.06)">
     <defs>
      <path id="DejaVuSerif-25" d="M 1581 331 
L 2516 331 
Q 3078 331 3337 575 
Q 3597 819 3597 1350 
Q 3597 1878 3339 2120 
Q 3081 2363 2516 2363 
L 1581 2363 
L 1581 331 
z
M 1581 2694 
L 2375 2694 
Q 2888 2694 3123 2891 
Q 3359 3088 3359 3513 
Q 3359 3941 3123 4136 
Q 2888 4331 2375 4331 
L 1581 4331 
L 1581 2694 
z
M 353 0 
L 353 331 
L 947 331 
L 947 4331 
L 353 4331 
L 353 4666 
L 2656 4666 
Q 3363 4666 3720 4377 
Q 4078 4088 4078 3513 
Q 4078 3097 3829 2850 
Q 3581 2603 3103 2547 
Q 3697 2472 4005 2167 
Q 4313 1863 4313 1350 
Q 4313 656 3875 328 
Q 3438 0 2509 0 
L 353 0 
z
" transform="scale(0.015625)"/>
      <path id="DejaVuSerif-27" d="M 1581 331 
L 2163 331 
Q 3072 331 3558 850 
Q 4044 1369 4044 2338 
Q 4044 3306 3559 3818 
Q 3075 4331 2163 4331 
L 1581 4331 
L 1581 331 
z
M 353 0 
L 353 331 
L 947 331 
L 947 4331 
L 353 4331 
L 353 4666 
L 2209 4666 
Q 3416 4666 4089 4050 
Q 4763 3434 4763 2338 
Q 4763 1238 4088 619 
Q 3413 0 2209 0 
L 353 0 
z
" transform="scale(0.015625)"/>
      <path id="DejaVuSerif-26" d="M 4513 1234 
Q 4306 581 3820 245 
Q 3334 -91 2591 -91 
Q 2134 -91 1743 65 
Q 1353 222 1050 525 
Q 700 875 529 1320 
Q 359 1766 359 2328 
Q 359 3416 987 4083 
Q 1616 4750 2644 4750 
Q 3025 4750 3456 4650 
Q 3888 4550 4384 4347 
L 4384 3272 
L 4031 3272 
Q 3916 3859 3567 4137 
Q 3219 4416 2591 4416 
Q 1844 4416 1459 3886 
Q 1075 3356 1075 2328 
Q 1075 1303 1459 773 
Q 1844 244 2591 244 
Q 3113 244 3450 492 
Q 3788 741 3938 1234 
L 4513 1234 
z
" transform="scale(0.015625)"/>
      <path id="DejaVuSerif-34" d="M 2700 -91 
Q 1628 -91 993 567 
Q 359 1225 359 2328 
Q 359 2894 529 3339 
Q 700 3784 1050 4134 
Q 1356 4441 1750 4595 
Q 2144 4750 2625 4750 
Q 3641 4750 4266 4084 
Q 4891 3419 4891 2328 
Q 4891 1403 4422 773 
Q 3953 144 3128 -38 
Q 3297 -247 3539 -347 
Q 3781 -447 4122 -447 
L 4219 -447 
L 4219 -1025 
Q 3691 -1000 3314 -767 
Q 2938 -534 2700 -91 
z
M 2625 244 
Q 3391 244 3781 770 
Q 4172 1297 4172 2328 
Q 4172 3363 3781 3889 
Q 3391 4416 2625 4416 
Q 1856 4416 1465 3889 
Q 1075 3363 1075 2328 
Q 1075 1297 1465 770 
Q 1856 244 2625 244 
z
" transform="scale(0.015625)"/>
      <path id="DejaVuSerif-31" d="M 313 0 
L 313 331 
L 941 331 
L 941 4331 
L 313 4331 
L 313 4666 
L 1509 4666 
L 4306 984 
L 4306 4331 
L 3681 4331 
L 3681 4666 
L 5319 4666 
L 5319 4331 
L 4691 4331 
L 4691 -91 
L 4313 -91 
L 1325 3841 
L 1325 331 
L 1953 331 
L 1953 0 
L 313 0 
z
" transform="scale(0.015625)"/>
      <path id="DejaVuSerif-f" d="M 231 -622 
Q 525 -406 662 -114 
Q 800 178 800 594 
L 800 709 
L 1416 709 
Q 1391 175 1164 -208 
Q 938 -591 481 -872 
L 231 -622 
z
" transform="scale(0.015625)"/>
      <path id="DejaVuSans-Oblique-53" d="M 3175 2156 
Q 3175 2616 2975 2859 
Q 2775 3103 2400 3103 
Q 2144 3103 1911 2972 
Q 1678 2841 1497 2591 
Q 1319 2344 1212 1994 
Q 1106 1644 1106 1300 
Q 1106 863 1306 627 
Q 1506 391 1875 391 
Q 2147 391 2380 519 
Q 2613 647 2778 891 
Q 2956 1147 3065 1494 
Q 3175 1841 3175 2156 
z
M 1394 2969 
Q 1625 3272 1939 3428 
Q 2253 3584 2638 3584 
Q 3175 3584 3472 3232 
Q 3769 2881 3769 2247 
Q 3769 1728 3584 1258 
Q 3400 788 3053 416 
Q 2822 169 2531 39 
Q 2241 -91 1919 -91 
Q 1547 -91 1294 64 
Q 1041 219 916 525 
L 556 -1331 
L -19 -1331 
L 922 3500 
L 1497 3500 
L 1394 2969 
z
" transform="scale(0.015625)"/>
      <path id="DejaVuSans-20" d="M 678 2906 
L 4684 2906 
L 4684 2381 
L 678 2381 
L 678 2906 
z
M 678 1631 
L 4684 1631 
L 4684 1100 
L 678 1100 
L 678 1631 
z
" transform="scale(0.015625)"/>
      <path id="DejaVuSans-13" d="M 2034 4250 
Q 1547 4250 1301 3770 
Q 1056 3291 1056 2328 
Q 1056 1369 1301 889 
Q 1547 409 2034 409 
Q 2525 409 2770 889 
Q 3016 1369 3016 2328 
Q 3016 3291 2770 3770 
Q 2525 4250 2034 4250 
z
M 2034 4750 
Q 2819 4750 3233 4129 
Q 3647 3509 3647 2328 
Q 3647 1150 3233 529 
Q 2819 -91 2034 -91 
Q 1250 -91 836 529 
Q 422 1150 422 2328 
Q 422 3509 836 4129 
Q 1250 4750 2034 4750 
z
" transform="scale(0.015625)"/>
      <path id="DejaVuSans-11" d="M 684 794 
L 1344 794 
L 1344 0 
L 684 0 
L 684 794 
z
" transform="scale(0.015625)"/>
      <path id="DejaVuSans-18" d="M 691 4666 
L 3169 4666 
L 3169 4134 
L 1269 4134 
L 1269 2991 
Q 1406 3038 1543 3061 
Q 1681 3084 1819 3084 
Q 2600 3084 3056 2656 
Q 3513 2228 3513 1497 
Q 3513 744 3044 326 
Q 2575 -91 1722 -91 
Q 1428 -91 1123 -41 
Q 819 9 494 109 
L 494 744 
Q 775 591 1075 516 
Q 1375 441 1709 441 
Q 2250 441 2565 725 
Q 2881 1009 2881 1497 
Q 2881 1984 2565 2268 
Q 2250 2553 1709 2553 
Q 1456 2553 1204 2497 
Q 953 2441 691 2322 
L 691 4666 
z
" transform="scale(0.015625)"/>
     </defs>
     <use xlink:href="#DejaVuSerif-25" transform="translate(0 0.015625)"/>
     <use xlink:href="#DejaVuSerif-44" transform="translate(73.486328 0.015625)"/>
     <use xlink:href="#DejaVuSerif-56" transform="translate(133.105469 0.015625)"/>
     <use xlink:href="#DejaVuSerif-48" transform="translate(184.423828 0.015625)"/>
     <use xlink:href="#DejaVuSerif-4f" transform="translate(243.603516 0.015625)"/>
     <use xlink:href="#DejaVuSerif-4c" transform="translate(275.585938 0.015625)"/>
     <use xlink:href="#DejaVuSerif-51" transform="translate(307.568359 0.015625)"/>
     <use xlink:href="#DejaVuSerif-48" transform="translate(371.972656 0.015625)"/>
     <use xlink:href="#DejaVuSerif-3" transform="translate(431.152344 0.015625)"/>
     <use xlink:href="#DejaVuSerif-b" transform="translate(462.939453 0.015625)"/>
     <use xlink:href="#DejaVuSerif-27" transform="translate(501.953125 0.015625)"/>
     <use xlink:href="#DejaVuSerif-26" transform="translate(582.128906 0.015625)"/>
     <use xlink:href="#DejaVuSerif-34" transform="translate(658.642578 0.015625)"/>
     <use xlink:href="#DejaVuSerif-26" transform="translate(740.625 0.015625)"/>
     <use xlink:href="#DejaVuSerif-31" transform="translate(817.138672 0.015625)"/>
     <use xlink:href="#DejaVuSerif-f" transform="translate(898.638672 0.015625)"/>
     <use xlink:href="#DejaVuSerif-3" transform="translate(930.425781 0.015625)"/>
     <use xlink:href="#DejaVuSans-Oblique-53" transform="translate(962.212891 0.015625)"/>
     <use xlink:href="#DejaVuSans-20" transform="translate(1045.171875 0.015625)"/>
     <use xlink:href="#DejaVuSans-13" transform="translate(1148.443359 0.015625)"/>
     <use xlink:href="#DejaVuSans-11" transform="translate(1212.066406 0.015625)"/>
     <use xlink:href="#DejaVuSans-13" transform="translate(1243.853516 0.015625)"/>
     <use xlink:href="#DejaVuSans-13" transform="translate(1307.476562 0.015625)"/>
     <use xlink:href="#DejaVuSans-18" transform="translate(1371.099609 0.015625)"/>
     <use xlink:href="#DejaVuSerif-3" transform="translate(1434.722656 0.015625)"/>
     <use xlink:href="#DejaVuSerif-47" transform="translate(1466.509766 0.015625)"/>
     <use xlink:href="#DejaVuSerif-55" transform="translate(1530.523438 0.015625)"/>
     <use xlink:href="#DejaVuSerif-52" transform="translate(1578.326172 0.015625)"/>
     <use xlink:href="#DejaVuSerif-53" transform="translate(1638.53125 0.015625)"/>
     <use xlink:href="#DejaVuSerif-53" transform="translate(1702.544922 0.015625)"/>
     <use xlink:href="#DejaVuSerif-4c" transform="translate(1766.558594 0.015625)"/>
     <use xlink:href="#DejaVuSerif-51" transform="translate(1798.541016 0.015625)"/>
     <use xlink:href="#DejaVuSerif-4a" transform="translate(1862.945312 0.015625)"/>
     <use xlink:href="#DejaVuSerif-c" transform="translate(1926.958984 0.015625)"/>
    </g>
   </g>
   <g id="line2d_48">
    <path d="M 13.501406 103.774594 
L 18.301406 103.774594 
L 23.101406 103.774594 
" style="fill: none; stroke: #2ca02c; stroke-width: 1.1; stroke-linecap: square"/>
   </g>
   <g id="text_27">
    <!-- FORGIVE, $P=0$ -->
    <g transform="translate(27.901406 105.874594) scale(0.06 -0.06)">
     <defs>
      <path id="DejaVuSerif-29" d="M 353 0 
L 353 331 
L 947 331 
L 947 4331 
L 353 4331 
L 353 4666 
L 4172 4666 
L 4172 3628 
L 3788 3628 
L 3788 4281 
L 1581 4281 
L 1581 2719 
L 3175 2719 
L 3175 3303 
L 3559 3303 
L 3559 1753 
L 3175 1753 
L 3175 2338 
L 1581 2338 
L 1581 331 
L 2328 331 
L 2328 0 
L 353 0 
z
" transform="scale(0.015625)"/>
      <path id="DejaVuSerif-32" d="M 2625 244 
Q 3391 244 3781 770 
Q 4172 1297 4172 2328 
Q 4172 3363 3781 3889 
Q 3391 4416 2625 4416 
Q 1856 4416 1465 3889 
Q 1075 3363 1075 2328 
Q 1075 1297 1465 770 
Q 1856 244 2625 244 
z
M 2625 -91 
Q 2150 -91 1751 65 
Q 1353 222 1050 525 
Q 700 875 529 1319 
Q 359 1763 359 2328 
Q 359 2894 529 3339 
Q 700 3784 1050 4134 
Q 1356 4441 1750 4595 
Q 2144 4750 2625 4750 
Q 3641 4750 4266 4084 
Q 4891 3419 4891 2328 
Q 4891 1769 4719 1320 
Q 4547 872 4197 525 
Q 3891 219 3497 64 
Q 3103 -91 2625 -91 
z
" transform="scale(0.015625)"/>
      <path id="DejaVuSerif-35" d="M 3066 2316 
Q 3284 2256 3442 2114 
Q 3600 1972 3725 1716 
L 4403 331 
L 4972 331 
L 4972 0 
L 3872 0 
L 3144 1484 
Q 2934 1916 2759 2042 
Q 2584 2169 2278 2169 
L 1581 2169 
L 1581 331 
L 2241 331 
L 2241 0 
L 353 0 
L 353 331 
L 947 331 
L 947 4331 
L 353 4331 
L 353 4666 
L 2719 4666 
Q 3400 4666 3770 4341 
Q 4141 4016 4141 3419 
Q 4141 2938 3870 2661 
Q 3600 2384 3066 2316 
z
M 1581 2503 
L 2503 2503 
Q 2975 2503 3200 2726 
Q 3425 2950 3425 3419 
Q 3425 3888 3200 4109 
Q 2975 4331 2503 4331 
L 1581 4331 
L 1581 2503 
z
" transform="scale(0.015625)"/>
      <path id="DejaVuSerif-2a" d="M 4097 3272 
Q 3988 3856 3641 4136 
Q 3294 4416 2675 4416 
Q 1869 4416 1472 3897 
Q 1075 3378 1075 2328 
Q 1075 1300 1484 772 
Q 1894 244 2688 244 
Q 3041 244 3362 331 
Q 3684 419 3975 594 
L 3975 1797 
L 3097 1797 
L 3097 2131 
L 4609 2131 
L 4609 391 
Q 4194 150 3714 29 
Q 3234 -91 2688 -91 
Q 1631 -91 995 570 
Q 359 1231 359 2328 
Q 359 3434 996 4092 
Q 1634 4750 2713 4750 
Q 3113 4750 3539 4658 
Q 3966 4566 4447 4378 
L 4447 3272 
L 4097 3272 
z
" transform="scale(0.015625)"/>
      <path id="DejaVuSerif-2c" d="M 1581 331 
L 2175 331 
L 2175 0 
L 353 0 
L 353 331 
L 947 331 
L 947 4331 
L 353 4331 
L 353 4666 
L 2175 4666 
L 2175 4331 
L 1581 4331 
L 1581 331 
z
" transform="scale(0.015625)"/>
      <path id="DejaVuSerif-39" d="M 1119 4331 
L 2497 750 
L 3872 4331 
L 3347 4331 
L 3347 4666 
L 4716 4666 
L 4716 4331 
L 4263 4331 
L 2597 0 
L 2059 0 
L 403 4331 
L -63 4331 
L -63 4666 
L 1638 4666 
L 1638 4331 
L 1119 4331 
z
" transform="scale(0.015625)"/>
      <path id="DejaVuSerif-28" d="M 353 0 
L 353 331 
L 947 331 
L 947 4331 
L 353 4331 
L 353 4666 
L 4109 4666 
L 4109 3628 
L 3725 3628 
L 3725 4281 
L 1581 4281 
L 1581 2719 
L 3109 2719 
L 3109 3303 
L 3494 3303 
L 3494 1753 
L 3109 1753 
L 3109 2338 
L 1581 2338 
L 1581 384 
L 3775 384 
L 3775 1038 
L 4159 1038 
L 4159 0 
L 353 0 
z
" transform="scale(0.015625)"/>
      <path id="DejaVuSans-Oblique-33" d="M 1081 4666 
L 2541 4666 
Q 3178 4666 3512 4369 
Q 3847 4072 3847 3500 
Q 3847 2731 3353 2303 
Q 2859 1875 1966 1875 
L 1172 1875 
L 806 0 
L 172 0 
L 1081 4666 
z
M 1613 4147 
L 1275 2394 
L 2069 2394 
Q 2606 2394 2893 2669 
Q 3181 2944 3181 3456 
Q 3181 3784 2986 3965 
Q 2791 4147 2438 4147 
L 1613 4147 
z
" transform="scale(0.015625)"/>
     </defs>
     <use xlink:href="#DejaVuSerif-29" transform="translate(0 0.78125)"/>
     <use xlink:href="#DejaVuSerif-32" transform="translate(69.384766 0.78125)"/>
     <use xlink:href="#DejaVuSerif-35" transform="translate(151.367188 0.78125)"/>
     <use xlink:href="#DejaVuSerif-2a" transform="translate(226.660156 0.78125)"/>
     <use xlink:href="#DejaVuSerif-2c" transform="translate(306.542969 0.78125)"/>
     <use xlink:href="#DejaVuSerif-39" transform="translate(346.044922 0.78125)"/>
     <use xlink:href="#DejaVuSerif-28" transform="translate(418.261719 0.78125)"/>
     <use xlink:href="#DejaVuSerif-f" transform="translate(491.259766 0.78125)"/>
     <use xlink:href="#DejaVuSerif-3" transform="translate(523.046875 0.78125)"/>
     <use xlink:href="#DejaVuSans-Oblique-33" transform="translate(554.833984 0.78125)"/>
     <use xlink:href="#DejaVuSans-20" transform="translate(634.619141 0.78125)"/>
     <use xlink:href="#DejaVuSans-13" transform="translate(737.890625 0.78125)"/>
    </g>
   </g>
   <g id="line2d_49">
    <path d="M 153.061406 94.774125 
L 157.861406 94.774125 
L 162.661406 94.774125 
" style="fill: none; stroke: #d62728; stroke-width: 1.1; stroke-linecap: square"/>
   </g>
   <g id="text_28">
    <!-- FORGIVE -->
    <g transform="translate(167.461406 96.874125) scale(0.06 -0.06)">
     <use xlink:href="#DejaVuSerif-29"/>
     <use xlink:href="#DejaVuSerif-32" transform="translate(69.390625 0)"/>
     <use xlink:href="#DejaVuSerif-35" transform="translate(151.375 0)"/>
     <use xlink:href="#DejaVuSerif-2a" transform="translate(226.671875 0)"/>
     <use xlink:href="#DejaVuSerif-2c" transform="translate(306.5625 0)"/>
     <use xlink:href="#DejaVuSerif-39" transform="translate(346.0625 0)"/>
     <use xlink:href="#DejaVuSerif-28" transform="translate(418.28125 0)"/>
    </g>
   </g>
   <g id="line2d_50">
    <path d="M 153.061406 103.774594 
L 157.861406 103.774594 
L 162.661406 103.774594 
" style="fill: none; stroke-dasharray: 4.07,1.76; stroke-dashoffset: 0; stroke: #444444; stroke-width: 1.1"/>
   </g>
   <g id="text_29">
    <!-- No congestion control -->
    <g transform="translate(167.461406 105.874594) scale(0.06 -0.06)">
     <use xlink:href="#DejaVuSerif-31"/>
     <use xlink:href="#DejaVuSerif-52" transform="translate(87.5 0)"/>
     <use xlink:href="#DejaVuSerif-3" transform="translate(147.703125 0)"/>
     <use xlink:href="#DejaVuSerif-46" transform="translate(179.484375 0)"/>
     <use xlink:href="#DejaVuSerif-52" transform="translate(235.484375 0)"/>
     <use xlink:href="#DejaVuSerif-51" transform="translate(295.6875 0)"/>
     <use xlink:href="#DejaVuSerif-4a" transform="translate(360.09375 0)"/>
     <use xlink:href="#DejaVuSerif-48" transform="translate(424.109375 0)"/>
     <use xlink:href="#DejaVuSerif-56" transform="translate(483.296875 0)"/>
     <use xlink:href="#DejaVuSerif-57" transform="translate(534.609375 0)"/>
     <use xlink:href="#DejaVuSerif-4c" transform="translate(574.796875 0)"/>
     <use xlink:href="#DejaVuSerif-52" transform="translate(606.78125 0)"/>
     <use xlink:href="#DejaVuSerif-51" transform="translate(666.984375 0)"/>
     <use xlink:href="#DejaVuSerif-3" transform="translate(731.390625 0)"/>
     <use xlink:href="#DejaVuSerif-46" transform="translate(763.171875 0)"/>
     <use xlink:href="#DejaVuSerif-52" transform="translate(819.171875 0)"/>
     <use xlink:href="#DejaVuSerif-51" transform="translate(879.375 0)"/>
     <use xlink:href="#DejaVuSerif-57" transform="translate(943.78125 0)"/>
     <use xlink:href="#DejaVuSerif-55" transform="translate(983.96875 0)"/>
     <use xlink:href="#DejaVuSerif-52" transform="translate(1031.765625 0)"/>
     <use xlink:href="#DejaVuSerif-4f" transform="translate(1091.96875 0)"/>
    </g>
   </g>
  </g>
 </g>
 <defs>
  <clipPath id="p5f9601f9ca">
   <rect x="34.941641" y="13.86" width="86.845973" height="52.668"/>
  </clipPath>
  <clipPath id="p9c4d56bfcc">
   <rect x="158.041641" y="13.86" width="86.845973" height="52.668"/>
  </clipPath>
 </defs>
</svg>
